<?xml version="1.0" standalone="no"?>
<!DOCTYPE svg PUBLIC "-//W3C//DTD SVG 20010904//EN"
 "http://www.w3.org/TR/2001/REC-SVG-20010904/DTD/svg10.dtd">
<svg version="1.0" xmlns="http://www.w3.org/2000/svg"
 width="16.000000pt" height="16.000000pt" viewBox="0 0 16.000000 16.000000"
 preserveAspectRatio="xMidYMid meet">
<metadata>
Created by potrace 1.11, written by Peter Selinger 2001-2013
</metadata>
<g transform="translate(0.000000,16.000000) scale(0.003125,-0.003125)"
fill="#000000" stroke="none">
<path d="M2073 5098 c-5 -7 -26 -53 -47 -103 -21 -49 -43 -103 -51 -120 -7
-16 -41 -95 -75 -175 -34 -80 -67 -158 -75 -175 -7 -16 -34 -79 -60 -140 -26
-60 -53 -123 -60 -140 -8 -16 -30 -70 -51 -120 -37 -87 -81 -175 -93 -185 -3
-3 -58 -84 -121 -180 -63 -96 -117 -177 -120 -180 -3 -3 -13 -17 -23 -32 l-17
-28 83 0 84 0 0 -715 c0 -393 -3 -712 -8 -709 -4 2 -42 73 -83 158 -71 143
-109 254 -189 551 -8 31 -95 332 -116 405 -11 36 -29 101 -42 145 -34 125 -46
158 -52 149 -2 -5 -21 -65 -40 -134 -20 -69 -72 -253 -117 -410 -45 -157 -99
-347 -121 -423 -29 -102 -59 -178 -119 -297 l-80 -160 85 0 85 0 0 -883 0
-883 -160 0 c-98 1 -161 -3 -163 -9 -1 -5 -3 -75 -2 -155 l1 -145 2234 0 2234
0 0 155 0 155 -162 -1 -162 0 0 883 0 882 84 3 83 3 -38 75 c-21 41 -41 82
-45 90 -4 8 -24 51 -45 95 -22 43 -39 86 -39 95 0 9 -3 20 -7 24 -4 3 -8 16
-10 28 -2 11 -15 59 -29 107 -14 47 -27 93 -29 101 -5 21 -120 422 -161 565
-20 66 -42 148 -51 182 -17 67 -26 72 -38 21 -10 -45 -9 -42 -39 -143 -15 -49
-29 -97 -31 -105 -2 -8 -35 -125 -73 -260 -61 -214 -92 -323 -97 -340 -1 -3
-7 -25 -14 -50 -8 -25 -22 -74 -33 -110 -20 -68 -167 -370 -180 -370 -4 0 -8
178 -8 395 l0 395 58 1 c31 1 69 0 85 -1 32 -2 33 -6 -42 162 -11 26 -21 50
-21 53 0 3 -9 24 -19 48 -39 85 -54 126 -107 302 -30 99 -56 187 -58 195 -6
25 -97 324 -103 340 -3 8 -8 23 -10 33 -1 10 -14 53 -27 95 -14 42 -33 106
-44 141 -10 35 -22 60 -25 55 -3 -5 -12 -34 -20 -64 -15 -54 -73 -251 -83
-280 -3 -8 -6 -17 -7 -20 0 -3 -18 -61 -39 -130 -22 -69 -41 -134 -43 -145 -3
-11 -9 -31 -14 -45 -5 -14 -21 -63 -34 -110 -60 -203 -81 -268 -99 -307 -21
-48 -41 -96 -43 -103 0 -3 -11 -27 -23 -54 -12 -27 -22 -54 -22 -60 0 -7 -4
-16 -9 -22 -5 -5 -16 -26 -25 -47 -14 -36 -14 -38 2 -36 9 1 47 1 85 0 l67 -1
0 -160 0 -160 -57 -1 c-148 -1 -267 1 -272 7 -3 3 -6 219 -7 480 l0 474 35 1
c20 0 57 0 83 -1 40 -1 47 1 42 14 -3 9 -10 16 -15 16 -5 0 -9 4 -9 9 0 6 -15
31 -32 57 -44 63 -59 85 -87 133 -14 22 -28 41 -33 41 -4 0 -8 4 -8 9 0 12
-61 105 -72 109 -4 2 -8 8 -8 12 0 5 -13 28 -28 52 -16 24 -35 59 -42 78 -7
19 -17 39 -22 45 -4 5 -8 17 -8 27 0 10 -5 18 -12 18 -6 0 -9 3 -5 6 3 4 -1
21 -10 38 -9 17 -18 36 -19 41 -1 6 -12 33 -25 60 -13 28 -24 55 -25 60 -2 6
-51 120 -109 255 -116 266 -122 281 -123 293 0 4 -7 18 -14 30 -8 12 -29 59
-47 105 -18 45 -34 82 -36 82 -1 0 -7 -6 -12 -12z m-628 -3343 l0 -325 -86 0
-86 0 -1 325 0 325 87 0 86 0 0 -325z m2404 1 l2 -323 -88 1 -88 1 -1 315 c0
173 1 318 3 323 2 4 41 7 87 7 l83 0 2 -324z"/>
</g>
</svg>
